<?xml version="1.0" encoding="UTF-8" standalone="no"?>
<!-- By Lionel Allorge (Own work) [GFDL (http://www.gnu.org/copyleft/fdl.html) or CC BY-SA 4.0-3.0-2.5-2.0-1.0 (http://creativecommons.org/licenses/by-sa/4.0-3.0-2.5-2.0-1.0)], via Wikimedia Commons -->
<!-- Created with Inkscape (http://www.inkscape.org/) -->
<svg
   xmlns:svg="http://www.w3.org/2000/svg"
   xmlns="http://www.w3.org/2000/svg"
   version="1.0"
   width="750"
   height="900"
   viewBox="0 0 750 900"
   id="Layer_1"
   xml:space="preserve"><defs
   id="defs11" />
<g
   id="Layer_2">
	<path
   d="M 375,8.5 C 226.5,8.5 21.5,102.2 21.5,346 C 21.5,346.8 21.5,347.7 21.5,348.5 C 23.2,591.2 270.1,891.5 375,891.5 C 480.3,891.5 728.5,589.8 728.5,346 C 728.5,102.2 523.5,8.5 375,8.5 z M 57,367.5 C 230,367.5 355,489.5 355,672.5 C 174,672.5 57,555.5 57,367.5 z M 699,367.5 C 699,555.5 579.6,672.5 395,672.5 C 395,489.5 522.5,367.5 699,367.5 z"
   id="path4" />


</g>
</svg>